HIERARCHY
ROOT teapot3
{
	OFFSET 0.000000 0.000000 0.000000
	CHANNELS 6 Xposition Yposition Zposition Yrotation Xrotation Zrotation
	End Site
	{
		OFFSET 0.000000 0.000000 0.000000
	}
}
MOTION
Frames: 70
Frame Time: 0.008333334
2.497824 3.947280 3.365489 32.764050 1.607985 -1.051178 
2.498071 3.947342 3.365239 32.750610 1.577549 -1.076019 
2.498719 3.947132 3.364717 32.797220 1.620027 -1.056702 
2.498929 3.947118 3.364652 32.795890 1.626651 -1.054993 
2.499022 3.947072 3.364624 32.798080 1.632144 -1.061768 
2.499111 3.947062 3.364623 32.788010 1.624311 -1.072540 
2.499026 3.947009 3.364757 32.785150 1.621775 -1.066559 
2.498653 3.947087 3.365239 32.755850 1.625576 -1.076874 
2.498375 3.947371 3.365827 32.732150 1.574208 -1.096527 
2.498496 3.947267 3.366148 32.749450 1.609517 -1.075989 
2.498465 3.947284 3.366510 32.764830 1.606773 -1.078735 
2.498537 3.947316 3.366765 32.746460 1.613534 -1.078918 
2.498622 3.947322 3.367112 32.741210 1.618162 -1.080688 
2.498707 3.947284 3.367484 32.757740 1.617900 -1.079254 
2.498489 3.947230 3.367707 32.755490 1.603618 -1.075012 
2.498286 3.947264 3.367692 32.764130 1.606176 -1.065125 
2.498114 3.947290 3.367792 32.757880 1.599748 -1.067474 
2.498025 3.947333 3.367546 32.765290 1.602607 -1.049408 
2.497696 3.947395 3.367316 32.771070 1.592476 -1.040253 
2.497424 3.947268 3.366978 32.737050 1.614101 -1.024048 
2.497542 3.947417 3.366486 32.739520 1.589841 -1.060181 
2.497741 3.947265 3.365988 32.773540 1.592223 -1.056702 
2.497544 3.947391 3.365649 32.747210 1.581539 -1.067444 
2.497598 3.947191 3.365115 32.758250 1.601337 -1.062439 
2.497553 3.947646 3.364531 32.777990 1.578410 -1.082794 
2.497209 3.947705 3.363712 32.801160 1.602841 -1.069672 
2.496900 3.947773 3.363383 32.814830 1.599566 -1.053223 
2.496496 3.947824 3.362770 32.812440 1.595071 -1.053375 
2.496418 3.947613 3.362134 32.818600 1.573849 -1.041901 
2.496053 3.947629 3.361703 32.807620 1.569738 -1.036407 
2.495681 3.947554 3.361482 32.804680 1.564795 -1.035553 
2.495026 3.947560 3.361264 32.791300 1.569452 -1.051575 
2.494419 3.947268 3.361068 32.794830 1.558674 -1.024933 
2.493496 3.947486 3.360861 32.791130 1.545644 -1.009613 
2.492764 3.947340 3.360562 32.813190 1.567218 -0.991425 
2.491937 3.947510 3.360232 32.802640 1.565380 -0.991333 
2.491362 3.947554 3.360179 32.793700 1.528543 -0.989410 
2.490607 3.947545 3.359544 32.793370 1.533298 -0.983368 
2.489823 3.947534 3.359220 32.787850 1.504700 -0.968384 
2.489311 3.947627 3.358698 32.784950 1.496320 -0.966888 
2.489112 3.947444 3.358417 32.803770 1.496300 -0.949677 
2.488868 3.947412 3.357867 32.794200 1.488780 -0.945160 
2.488519 3.947832 3.357218 32.756570 1.413993 -0.993958 
2.488782 3.947445 3.356509 32.801800 1.455483 -0.928406 
2.489843 3.946832 3.355991 32.901330 1.564179 -0.861511 
2.489228 3.947094 3.355210 32.831240 1.529992 -0.888367 
2.488721 3.947522 3.354244 32.762420 1.478191 -0.943543 
2.488755 3.947388 3.353579 32.757710 1.500417 -0.964233 
2.488635 3.947385 3.352843 32.744140 1.494722 -0.966248 
2.488403 3.947534 3.352151 32.757260 1.430404 -1.000031 
2.488438 3.947503 3.351501 32.768930 1.424402 -1.000793 
2.488147 3.947549 3.351497 32.762160 1.410478 -0.972534 
2.488065 3.947445 3.351303 32.763700 1.382601 -0.962311 
2.488034 3.947696 3.351545 32.773000 1.399839 -0.984161 
2.488358 3.948027 3.351382 32.809130 1.342648 -1.005585 
2.488176 3.947792 3.351775 32.777660 1.369906 -0.999359 
2.488412 3.948043 3.352254 32.770670 1.365592 -1.000641 
2.488471 3.947987 3.352708 32.776560 1.393051 -0.996857 
2.488729 3.947901 3.353099 32.779160 1.401937 -0.953766 
2.487766 3.947249 3.353276 32.698950 1.556373 -0.979919 
2.487555 3.947194 3.353281 32.702560 1.543111 -0.992554 
2.488344 3.947915 3.353422 32.814750 1.411672 -1.013947 
2.487538 3.947392 3.353685 32.720630 1.534000 -0.982483 
2.487559 3.947322 3.353930 32.724650 1.532184 -0.950317 
2.487690 3.947266 3.353700 32.710650 1.547774 -0.929718 
2.487777 3.947266 3.353267 32.722710 1.524088 -0.965179 
2.488174 3.947490 3.353024 32.735570 1.504250 -0.976624 
2.488149 3.947517 3.352664 32.739480 1.485340 -0.944122 
2.488063 3.947334 3.352560 32.759190 1.468832 -0.979126 
2.487868 3.947215 3.352192 32.715210 1.501995 -0.971375 
